<?xml version="1.0" standalone="no"?><!DOCTYPE svg PUBLIC "-//W3C//DTD SVG 1.1//EN" "http://www.w3.org/Graphics/SVG/1.1/DTD/svg11.dtd"><svg class="icon" width="200px" height="200.00px" viewBox="0 0 1024 1024" version="1.1" xmlns="http://www.w3.org/2000/svg"><path d="M512 512m-512 0a512 512 0 1 0 1024 0 512 512 0 1 0-1024 0Z" fill="#FB6C85" /><path d="M324.408781 655.018925C505.290126 655.018925 651.918244 508.387706 651.918244 327.509463c0-152.138029-103.733293-280.047334-244.329811-316.853972C205.813923 52.463528 47.497011 213.017581 8.987325 415.981977 47.587706 553.880127 174.183098 655.018925 324.408781 655.018925z" fill="#FFFFFF" fill-opacity=".2" /><path d="M512 1024c282.766631 0 512-229.233369 512-512 0-31.765705-2.891385-62.853911-8.433853-93.018889C928.057169 336.0999 809.874701 285.26268 679.824375 285.26268c-269.711213 0-488.357305 218.645317-488.357305 488.357305 0 54.959576 9.084221 107.802937 25.822474 157.10377C300.626556 989.489417 402.283167 1024 512 1024z" fill="#FFFFFF" fill-opacity=".15" /><path d="M732.535958 756.566238c36.389596 0 65.889478-29.499882 65.889477-65.889478 0 36.389596 29.502983 65.889478 65.889478 65.889478-17.053747 0-65.889478 29.502983-65.889478 65.889477 0-36.386495-29.499882-65.889478-65.889477-65.889477zM159.685087 247.279334c25.686819 0 46.51022-20.8234 46.51022-46.51022 0 25.686819 20.8234 46.51022 46.510219 46.51022-12.03607 0-46.51022 20.8234-46.510219 46.510219 0-25.686819-20.8234-46.51022-46.51022-46.510219z" fill="#FFFFFF" fill-opacity=".5" /><path d="M206.195307 333.32324c8.562531 0 15.503407-6.940875 15.503406-15.503407 0 8.562531 6.940875 15.503407 15.503407 15.503407-4.012282 0-15.503407 6.940875-15.503407 15.503406 0-8.562531-6.940875-15.503407-15.503406-15.503406z" fill="#FFFFFF" fill-opacity=".3" /><path d="M517.87114 812.324239c165.647697 0 299.933553-134.299809 299.933553-299.96456C817.804693 346.695703 683.518837 212.396669 517.87114 212.396669c-165.648472 0-299.933553 134.299034-299.933553 299.96301 0 45.90016 10.309765 89.393417 28.737114 128.287588 1.198413 2.530931 0.992218 5.512236-0.591455 7.822244l-32.482737 47.396239c-2.816194 4.109178 0.117051 9.693505 5.098295 9.707458l66.316596 0.186816c2.275125 0.006201 4.429323 1.016248 5.917651 2.737127 54.998335 63.591098 136.270292 103.827089 226.938089 103.827088z" fill="#FFFFFF" /><path d="M397.24456 431.76367m15.503407 0l17.472339 0q15.503407 0 15.503406 15.503406l0 128.973614q0 15.503407-15.503406 15.503407l-17.472339 0q-15.503407 0-15.503407-15.503407l0-128.973614q0-15.503407 15.503407-15.503406Z" fill="#FC8297" /><path d="M592.369659 431.76367m15.503407 0l17.472339 0q15.503407 0 15.503407 15.503406l0 128.973614q0 15.503407-15.503407 15.503407l-17.472339 0q-15.503407 0-15.503407-15.503407l0-128.973614q0-15.503407 15.503407-15.503406Z" fill="#FC8297" /></svg>